<svg width="80" height="80" viewBox="0 0 80 80" fill="none" xmlns="http://www.w3.org/2000/svg">
<rect width="80" height="80" rx="40" fill="#FBF7F7"/>
<path d="M55.635 37.1156C54.8577 34.285 53.1068 31.9667 50.4872 30.6123C50.2981 30.5145 50.1158 30.4667 49.9394 30.4438C49.4516 30.2887 48.9086 30.226 48.3607 30.2727C46.8958 30.3987 45.7369 31.0931 45.2406 32.0586C45.1317 32.2 45.0265 32.3514 44.9329 32.5273C43.9547 34.2632 41.9828 35.793 40.257 36.895C40.1566 36.8552 40.0476 36.8217 39.927 36.7999C37.8553 36.4184 36.064 35.5194 34.9152 33.6984C34.7542 33.4433 34.5555 33.2675 34.3398 33.1463C33.7383 32.4965 32.7818 32.0512 31.6384 31.9534C31.0911 31.9066 30.5491 31.9693 30.0613 32.124C29.8854 32.1463 29.7037 32.1946 29.5145 32.2924C26.8933 33.6463 25.143 35.9652 24.3662 38.7957C23.8237 40.7713 26.8184 41.893 27.3641 39.9073C27.5501 39.2309 27.7961 38.5949 28.1054 38.005C28.0735 39.6634 28.0416 41.3223 28.0097 42.9802C28.0092 43.0073 28.0156 43.0328 28.0156 43.0593L27.998 43.9892L27.8035 48.6274L27.3854 54.432C27.3827 54.5776 27.4167 54.7147 27.4762 54.8417L27.4741 54.8613C27.4624 55.4809 28.0708 55.9894 28.8344 56C29.5958 56.0096 30.2244 55.5154 30.2372 54.8975L31.0523 47.2661L31.1936 46.1338L31.5305 46.1391L31.9237 50.6663L32.192 54.5962C32.1888 54.7657 32.2361 54.9262 32.3174 55.0723C32.4482 55.5712 32.988 55.9506 33.6448 55.9586C34.4078 55.9682 35.0348 55.475 35.0476 54.8565L34.851 49.0445L34.8355 44.4037L34.8499 43.6337C34.8515 43.6093 34.8568 43.5864 34.8573 43.562C34.8913 41.7788 34.9253 39.9955 34.9594 38.2123C36.1724 39.0391 37.5641 39.6034 39.0774 39.8818C39.5173 39.9626 39.8973 39.8733 40.2092 39.6895C40.6901 39.9546 41.2937 40.0077 41.8787 39.6438C42.9016 39.0083 44.0355 38.2654 45.0573 37.4121C45.086 38.902 45.1141 40.3919 45.1428 41.8818C45.1434 41.9057 45.1487 41.9291 45.1503 41.953L45.1646 42.7256L45.1497 47.3644L44.9537 53.1769C44.9654 53.7954 45.5929 54.2901 46.3559 54.279C47.0127 54.271 47.5525 53.8916 47.6843 53.3916C47.764 53.2465 47.8118 53.0855 47.8087 52.9155L48.0775 48.9856L48.4702 44.4579L48.8081 44.4536L48.95 45.5859L49.7641 53.2168C49.7763 53.8347 50.4043 54.3284 51.1668 54.3193C51.9309 54.3082 52.5393 53.7991 52.5271 53.1812L52.525 53.162C52.5845 53.0345 52.6196 52.8958 52.6164 52.7518L52.1982 46.9462L52.0032 42.308L51.9857 41.3691C51.9857 41.3452 51.9915 41.3223 51.991 41.2984C51.9591 39.6395 51.9272 37.9811 51.8953 36.3222C52.2041 36.9126 52.4511 37.5491 52.6371 38.2261C53.1823 40.2128 56.177 39.0911 55.635 37.1156Z" fill="url(#paint0_linear)"/>
<path d="M48.4838 29.3933C49.9731 29.3933 51.1804 28.186 51.1804 26.6966C51.1804 25.2073 49.9731 24 48.4838 24C46.9944 24 45.7871 25.2073 45.7871 26.6966C45.7871 28.186 46.9944 29.3933 48.4838 29.3933Z" fill="url(#paint1_linear)"/>
<path d="M31.517 31.0735C33.0063 31.0735 34.2136 29.8661 34.2136 28.3768C34.2136 26.8875 33.0063 25.6802 31.517 25.6802C30.0276 25.6802 28.8203 26.8875 28.8203 28.3768C28.8203 29.8661 30.0276 31.0735 31.517 31.0735Z" fill="url(#paint2_linear)"/>
<defs>
<linearGradient id="paint0_linear" x1="24.3008" y1="43.2803" x2="55.7003" y2="43.2803" gradientUnits="userSpaceOnUse">
<stop stop-color="#FE976B"/>
<stop offset="1" stop-color="#FF4141"/>
</linearGradient>
<linearGradient id="paint1_linear" x1="45.7871" y1="26.7284" x2="51.1804" y2="26.7284" gradientUnits="userSpaceOnUse">
<stop stop-color="#FE976B"/>
<stop offset="1" stop-color="#FF4141"/>
</linearGradient>
<linearGradient id="paint2_linear" x1="28.8203" y1="28.4085" x2="34.2136" y2="28.4085" gradientUnits="userSpaceOnUse">
<stop stop-color="#FE976B"/>
<stop offset="1" stop-color="#FF4141"/>
</linearGradient>
</defs>
</svg>
