<svg width="80" height="80" viewBox="0 0 80 80" fill="none" xmlns="http://www.w3.org/2000/svg">
<rect width="80" height="80" rx="40" fill="#FBF7F7"/>
<g clip-path="url(#clip0)">
<path d="M51.0452 53.8467H49.14L49.1397 50.4464C49.1397 47.0375 47.2695 43.9036 43.8736 41.6221C43.444 41.3331 43.177 40.7116 43.177 40C43.177 39.2883 43.444 38.6669 43.8734 38.3781C47.2695 36.0963 49.1397 32.9625 49.14 29.5535V26.1533H51.0452C51.6397 26.1533 52.1218 25.6711 52.1218 25.0766C52.1218 24.482 51.6396 24 51.0452 24H28.9555C28.361 24 27.8789 24.4822 27.8789 25.0766C27.8789 25.6712 28.3611 26.1533 28.9555 26.1533H30.8607V29.5535C30.8607 32.9627 32.7308 36.0966 36.1267 38.378C36.5565 38.6669 36.8235 39.2882 36.8235 40C36.8235 40.7116 36.5565 41.3331 36.1268 41.6219C32.7308 43.9035 30.8607 47.0374 30.8607 50.4464V53.8467H28.9555C28.361 53.8467 27.8789 54.3289 27.8789 54.9234C27.8789 55.5181 28.3611 56 28.9555 56H51.0452C51.6397 56 52.1218 55.518 52.1218 54.9234C52.1218 54.3288 51.6396 53.8467 51.0452 53.8467ZM38.9238 35.8909C38.9238 35.2963 39.4058 34.8142 40.0003 34.8142C40.5949 34.8142 41.0769 35.2963 41.0769 35.8909V37.794C41.0769 38.3887 40.5949 38.8706 40.0003 38.8706C39.4058 38.8706 38.9238 38.3886 38.9238 37.794V35.8909ZM39.2389 42.7427C39.4391 42.5427 39.7169 42.4274 40 42.4274C40.2832 42.4274 40.5609 42.5425 40.7611 42.7427C40.9624 42.943 41.0766 43.2209 41.0766 43.5039C41.0766 43.787 40.9624 44.0649 40.7611 44.2651C40.5609 44.4652 40.2832 44.5805 40 44.5805C39.7169 44.5805 39.4391 44.4653 39.2389 44.2651C39.0386 44.0649 38.9234 43.787 38.9234 43.5039C38.9234 43.2209 39.0385 42.9431 39.2389 42.7427ZM33.3676 53.8572C34.2459 50.5272 38.7722 46.9038 39.3372 46.4622C39.7266 46.1577 40.2737 46.1575 40.6634 46.4622C41.2284 46.9039 45.7545 50.5272 46.6329 53.8572H33.3676Z" fill="url(#paint0_linear)"/>
</g>
<defs>
<linearGradient id="paint0_linear" x1="27.8789" y1="40.1882" x2="52.1218" y2="40.1882" gradientUnits="userSpaceOnUse">
<stop stop-color="#FE976B"/>
<stop offset="1" stop-color="#FF4141"/>
</linearGradient>
<clipPath id="clip0">
<rect width="32" height="32" fill="white" transform="translate(24 24)"/>
</clipPath>
</defs>
</svg>
